# xmcd
#
# Track frame offsets:
#	150
#	25467
#	42083
#	59341
#	83576
#	100837
#	129831
#	152174
#	180737
#	208749
#	244956
#
# Disc length: 3567 seconds
#
# Revision: 1
# Processed by: cddbd v1.4PL0 Copyright (c) Steve Scherf et al.
# Submitted via: audiograbber 1.81.03
#
DISCID=8d0ded0b
DTITLE=Don Croissant - Live At The Club
DYEAR=1996
DGENRE=Blues
TTITLE0=Lo-Lo (Live)
TTITLE1=Shake Your Moneymaker (Live)
TTITLE2=T.V. Mamma (Live)
TTITLE3=9 Below Zero (Live)
TTITLE4=Hounddog (Live)
TTITLE5=Backdoor Man (Live)
TTITLE6=Bring It To Jerome (Live)
TTITLE7=Bo Diddley (Live)
TTITLE8=Tired (Live)
TTITLE9=Jungle King (Live)
TTITLE10=Malaguena (Live)
EXTD=
EXTT0=
EXTT1=
EXTT2=
EXTT3=
EXTT4=
EXTT5=
EXTT6=
EXTT7=
EXTT8=
EXTT9=
EXTT10=
PLAYORDER=
